<svg width="61" height="16" viewBox="0 0 61 16" fill="none" xmlns="http://www.w3.org/2000/svg">
<path d="M8.32582 10.8681C8.19986 10.5866 8.01462 10.3383 7.78616 10.1395C7.60586 9.97898 7.39716 9.85178 7.1687 9.75917C6.41169 9.45661 5.3509 9.2405 4.46917 9.11083C3.69734 8.99969 3.15275 8.87867 2.83414 8.74777C2.518 8.61563 2.35869 8.36371 2.35869 7.98953C2.35869 7.25599 2.96627 6.83735 4.17896 6.88798C5.37807 6.93861 6.29438 7.31279 7.09831 7.94013C7.23662 8.06733 7.41568 8.1476 7.55399 7.94013L8.48265 6.72374C8.62096 6.5422 8.60738 6.39031 8.44067 6.26558C7.37864 5.28135 5.97824 4.78986 4.24194 4.78986C3.04037 4.78986 2.03514 5.07512 1.2201 5.64071C0.406288 6.20878 0 7.0337 0 8.11302C0 8.59834 0.0827395 9.02686 0.248219 9.40104C0.248219 9.40351 0.250688 9.40598 0.251923 9.41092C0.377885 9.69248 0.563123 9.93946 0.790348 10.1395C0.97188 10.3001 1.18058 10.4273 1.40781 10.5186C2.16481 10.8212 3.22561 11.0385 4.10857 11.1682C4.8804 11.2781 5.42376 11.3991 5.7436 11.5313C6.05974 11.6634 6.21905 11.9153 6.21905 12.2907C6.21905 13.0243 5.61147 13.4429 4.39878 13.3911C3.19967 13.3404 2.28336 12.9662 1.47943 12.3401C1.34112 12.2129 1.16082 12.1327 1.02375 12.3401L0.0950887 13.5553C-0.0432221 13.7381 -0.029638 13.8887 0.137076 14.0135C1.19911 14.9977 2.5995 15.4892 4.3358 15.4892C5.53737 15.4892 6.54259 15.2039 7.35764 14.6371C8.17145 14.0703 8.57774 13.2441 8.57774 12.1648C8.57774 11.6795 8.495 11.2509 8.32952 10.8755C8.32952 10.8731 8.32705 10.8706 8.32582 10.8669V10.8681Z" fill="#8A308A"/>
<path d="M60.7481 10.8681C60.6222 10.5866 60.4369 10.3383 60.2085 10.1395C60.0282 9.97898 59.8195 9.85178 59.591 9.75917C58.834 9.45661 57.7732 9.2405 56.8915 9.11083C56.1197 8.99969 55.5751 8.87867 55.2565 8.74777C54.9403 8.61563 54.781 8.36371 54.781 7.98953C54.781 7.25599 55.3886 6.83735 56.6013 6.88798C57.8004 6.93861 58.7167 7.31279 59.5206 7.94013C59.6589 8.06733 59.838 8.1476 59.9763 7.94013L60.905 6.72374C61.0433 6.5422 61.0297 6.39031 60.863 6.26558C59.801 5.28135 58.4006 4.78986 56.6643 4.78986C55.4627 4.78986 54.4575 5.07512 53.6424 5.64071C52.8286 6.20878 52.4223 7.0337 52.4223 8.11302C52.4223 8.59834 52.5051 9.02686 52.6705 9.40104C52.6705 9.40351 52.673 9.40598 52.6742 9.41092C52.8002 9.69248 52.9854 9.93946 53.2127 10.1395C53.3942 10.3001 53.6029 10.4273 53.8301 10.5186C54.5871 10.8212 55.6479 11.0385 56.5309 11.1682C57.3027 11.2781 57.8461 11.3991 58.1659 11.5313C58.4821 11.6634 58.6414 11.9153 58.6414 12.2907C58.6414 13.0243 58.0338 13.4429 56.8211 13.3911C55.622 13.3404 54.7057 12.9662 53.9018 12.3401C53.7634 12.2129 53.5831 12.1327 53.4461 12.3401L52.5174 13.5553C52.3791 13.7381 52.3927 13.8887 52.5594 14.0135C53.6214 14.9977 55.0218 15.4892 56.7581 15.4892C57.9597 15.4892 58.9649 15.2039 59.78 14.6371C60.5938 14.0703 61.0001 13.2441 61.0001 12.1648C61.0001 11.6795 60.9173 11.2509 60.7518 10.8755C60.7518 10.8731 60.7494 10.8706 60.7481 10.8669V10.8681Z" fill="#8A308A"/>
<path d="M23.3263 0.496033H21.7061C21.5172 0.496033 21.4233 0.587417 21.4233 0.771419V15.2274C21.4233 15.4114 21.5172 15.5028 21.7061 15.5028H23.3263C23.5153 15.5028 23.6104 15.4114 23.6104 15.2274V0.771419C23.6104 0.587417 23.5153 0.496033 23.3263 0.496033Z" fill="#8A308A"/>
<path d="M39.2679 0.496033H37.6477C37.4588 0.496033 37.3637 0.588652 37.3637 0.771419V5.82594C36.4585 5.15291 35.4002 4.81578 34.1912 4.81578C32.6858 4.81578 31.4188 5.33691 30.3926 6.37795C29.3651 7.42022 28.8514 8.67736 28.8514 10.1494C28.8514 11.6214 29.3651 12.9168 30.3926 13.9517C31.4188 14.9866 32.6858 15.504 34.1912 15.504C35.4063 15.504 36.4634 15.1718 37.3637 14.5099C37.5897 14.3444 37.8045 14.1579 38.0095 13.9517C39.037 12.9168 39.5507 11.6498 39.5507 10.1494V0.771419C39.5507 0.588652 39.4556 0.496033 39.2667 0.496033H39.2679ZM36.3548 12.4821C35.7842 13.0934 35.0643 13.3985 34.1924 13.3985C33.3206 13.3985 32.6031 13.0922 32.04 12.4821C31.4768 11.8709 31.1953 11.0929 31.1953 10.1494C31.1953 9.20591 31.4768 8.4452 32.04 7.82651C32.6031 7.20781 33.3193 6.89908 34.1924 6.89908C35.0655 6.89908 35.7842 7.21152 36.3548 7.83762C36.9241 8.46249 37.2093 9.23308 37.2093 10.1494C37.2093 11.0657 36.9241 11.8721 36.3548 12.4821Z" fill="#8A308A"/>
<path d="M27.0397 4.82812H25.4195C25.2306 4.82812 25.1367 4.91951 25.1367 5.10351V15.2286C25.1367 15.4126 25.2306 15.504 25.4195 15.504H27.0397C27.2287 15.504 27.3238 15.4126 27.3238 15.2286V5.10351C27.3238 4.92074 27.2287 4.82812 27.0397 4.82812Z" fill="#8A308A"/>
<path d="M49.914 6.20751C48.9138 5.16524 47.6653 4.6441 46.1685 4.6441C44.6718 4.6441 43.327 5.17635 42.2674 6.23838C41.2066 7.30165 40.6781 8.59337 40.6781 10.1136C40.6781 11.6337 41.2116 12.9082 42.2786 13.9356C43.3455 14.9631 44.6582 15.4768 46.2142 15.4768C48.0073 15.4768 49.5263 14.8853 50.7711 13.7022C50.9045 13.5479 50.9045 13.4071 50.7711 13.2799L49.6819 12.1401C49.5485 11.9845 49.4003 11.9845 49.2373 12.1401C48.4667 12.9712 47.4813 13.3861 46.2809 13.3861C45.4362 13.3861 44.7212 13.1218 44.1346 12.5945C43.5493 12.066 43.2122 11.3806 43.1232 10.5359H51.0601C51.2675 10.5359 51.3713 10.4371 51.3713 10.2395C51.4009 8.59337 50.9156 7.24855 49.9153 6.20627L49.914 6.20751ZM43.2109 9.12192C43.3887 8.40319 43.7419 7.82649 44.2668 7.38933C44.7928 6.9534 45.4264 6.73482 46.1673 6.73482C46.8638 6.73482 47.4677 6.9571 47.9789 7.40044C48.4902 7.84378 48.8125 8.41801 48.9459 9.12192H43.2097H43.2109Z" fill="#8A308A"/>
<path d="M14.987 15.478C13.4816 15.478 12.2158 14.9606 11.1896 13.9257C10.1622 12.8909 9.64967 11.6239 9.64967 10.1234C9.64967 8.62301 10.1634 7.39427 11.1896 6.352C12.2158 5.30973 13.4816 4.78983 14.987 4.78983C16.4924 4.78983 17.7618 5.31096 18.7955 6.352C19.8291 7.39427 20.3465 8.65018 20.3465 10.1234C20.3465 11.5967 19.8328 12.8909 18.8066 13.9257C17.7791 14.9606 16.5072 15.478 14.9882 15.478H14.987ZM12.8345 12.4574C13.3964 13.0687 14.1139 13.3737 14.987 13.3737C15.8601 13.3737 16.58 13.0687 17.1493 12.4574C17.7186 11.8461 18.0039 11.0681 18.0039 10.1247C18.0039 9.18119 17.7186 8.43654 17.1493 7.81167C16.58 7.1868 15.8588 6.87437 14.987 6.87437C14.1151 6.87437 13.3976 7.1831 12.8345 7.80179C12.2714 8.42048 11.9898 9.19478 11.9898 10.1247C11.9898 11.0546 12.2714 11.8474 12.8345 12.4574Z" fill="#8A308A"/>
<path d="M18.741 0.496033C19.6265 0.496033 20.3464 1.21475 20.3464 2.10143V2.11624C20.3464 3.00168 19.6277 3.72164 18.741 3.72164H17.1356V2.10266C17.1356 1.21722 17.8543 0.497268 18.741 0.497268V0.496033Z" fill="#8A308A"/>
<path d="M27.835 2.10143C27.835 1.21479 27.1165 0.496033 26.2302 0.496033C25.3439 0.496033 24.6254 1.21479 24.6254 2.10143V2.11501C24.6254 3.00164 25.3439 3.7204 26.2302 3.7204C27.1165 3.7204 27.835 3.00164 27.835 2.11501V2.10143Z" fill="#8A308A"/>
</svg>
