<?xml version="1.0" encoding="UTF-8"?>
<svg id="Layer_1" data-name="Layer 1" xmlns="http://www.w3.org/2000/svg" viewBox="0 0 567.52 219.32">
  <defs>
    <style>
      .cls-1 {
        fill: #80287e;
      }

      .cls-2 {
        fill: #3d194f;
      }
    </style>
  </defs>
  <g>
    <path class="cls-2" d="m196.54,200.39c-4.97,0-8.73-1.13-11.27-3.38-2.54-2.26-3.81-5.55-3.81-9.9v-22.28h-9.17v-9.77h9.17v-11.4l11.74-2.66v14.05h12.77v9.77h-12.77v19.88c0,2.06.46,3.53,1.37,4.41.91.89,2.51,1.33,4.8,1.33,1.14,0,2.18-.07,3.13-.21.94-.14,1.98-.41,3.13-.81v9.68c-1.2.4-2.7.71-4.5.94-1.8.23-3.33.34-4.58.34Z"/>
    <path class="cls-2" d="m225.93,200.48c-3.2,0-6.03-.59-8.48-1.76-2.46-1.17-4.37-2.78-5.74-4.84-1.37-2.06-2.06-4.43-2.06-7.11,0-4.28,1.61-7.61,4.84-9.98,3.23-2.37,7.67-3.56,13.32-3.56,3.88,0,7.54.6,10.97,1.8v-3.26c0-2.57-.8-4.51-2.4-5.83-1.6-1.31-3.94-1.97-7.03-1.97-1.88,0-3.91.3-6.08.9-2.17.6-4.68,1.53-7.54,2.79l-4.28-8.65c3.54-1.6,6.93-2.8,10.15-3.6,3.23-.8,6.47-1.2,9.72-1.2,6,0,10.67,1.44,14.01,4.33,3.34,2.88,5.01,6.96,5.01,12.21v28.96h-11.57v-3.17c-1.83,1.37-3.8,2.37-5.91,3-2.11.63-4.43.94-6.94.94Zm-5.14-13.97c0,1.71.74,3.07,2.23,4.07,1.48,1,3.46,1.5,5.91,1.5,1.94,0,3.74-.24,5.4-.73,1.66-.48,3.14-1.21,4.46-2.18v-6.51c-1.43-.57-2.91-1-4.46-1.29-1.54-.29-3.2-.43-4.97-.43-2.69,0-4.78.5-6.3,1.5-1.51,1-2.27,2.36-2.27,4.07Z"/>
    <path class="cls-2" d="m259.26,199.7v-44.64h11.74v3.68c3.37-3.03,7.54-4.54,12.51-4.54,3.48,0,6.55.76,9.21,2.27,2.66,1.51,4.73,3.6,6.21,6.25,1.48,2.66,2.23,5.75,2.23,9.3v27.67h-11.74v-25.96c0-2.91-.83-5.21-2.48-6.9-1.66-1.68-3.91-2.53-6.77-2.53-2,0-3.77.39-5.31,1.16-1.54.77-2.83,1.87-3.86,3.3v30.93h-11.74Z"/>
    <path class="cls-2" d="m332.51,218.04c-3.43,0-6.74-.36-9.94-1.07-3.2-.71-6.08-1.73-8.65-3.04l4.11-9.08c2.46,1.2,4.85,2.08,7.2,2.66,2.34.57,4.68.86,7.03.86,3.48,0,6.13-.74,7.92-2.23,1.8-1.49,2.7-3.71,2.7-6.68v-3.51c-3.66,2.69-7.74,4.03-12.25,4.03-4.23,0-8.04-1.01-11.44-3.04-3.4-2.03-6.11-4.78-8.14-8.27-2.03-3.48-3.04-7.34-3.04-11.57s1.01-8.05,3.04-11.48c2.03-3.43,4.78-6.15,8.27-8.18,3.48-2.03,7.37-3.04,11.65-3.04,2.17,0,4.28.31,6.34.94,2.06.63,3.97,1.51,5.74,2.66v-2.91h11.57v44.55c0,5.88-1.9,10.42-5.7,13.62-3.8,3.2-9.27,4.8-16.41,4.8Zm-.09-28.02c2.17,0,4.14-.36,5.91-1.07,1.77-.71,3.28-1.73,4.54-3.04v-17.48c-1.26-1.26-2.78-2.24-4.58-2.96-1.8-.71-3.73-1.07-5.78-1.07-2.46,0-4.66.56-6.6,1.67-1.94,1.11-3.49,2.63-4.63,4.54-1.14,1.92-1.71,4.07-1.71,6.47s.56,4.66,1.67,6.6c1.11,1.94,2.66,3.48,4.63,4.63,1.97,1.14,4.16,1.71,6.55,1.71Z"/>
    <path class="cls-2" d="m385.63,200.56c-4.46,0-8.5-1.03-12.12-3.08-3.63-2.06-6.5-4.83-8.61-8.31-2.11-3.48-3.17-7.4-3.17-11.74s1.01-8.25,3.04-11.74c2.03-3.48,4.78-6.25,8.27-8.31,3.48-2.06,7.37-3.08,11.65-3.08s8.08,1.06,11.39,3.17c3.31,2.11,5.93,4.97,7.84,8.57,1.91,3.6,2.87,7.68,2.87,12.25v3.08h-33.07c.51,1.77,1.36,3.37,2.53,4.8,1.17,1.43,2.63,2.54,4.37,3.34,1.74.8,3.61,1.2,5.61,1.2s3.84-.31,5.53-.94c1.68-.63,3.13-1.51,4.33-2.66l7.71,7.03c-2.74,2.23-5.56,3.86-8.44,4.88-2.88,1.03-6.13,1.54-9.72,1.54Zm-12.08-27.59h21.68c-.4-1.77-1.13-3.33-2.18-4.67-1.06-1.34-2.31-2.4-3.77-3.17-1.46-.77-3.07-1.16-4.84-1.16s-3.49.37-4.97,1.11c-1.49.74-2.73,1.79-3.73,3.13-1,1.34-1.73,2.93-2.18,4.75Z"/>
    <path class="cls-2" d="m413.99,199.7v-44.64h11.74v4.97c1.43-1.94,3.14-3.43,5.14-4.46,2-1.03,4.25-1.54,6.77-1.54,2.17.06,3.8.4,4.88,1.03v10.28c-.86-.4-1.8-.7-2.83-.9s-2.09-.3-3.17-.3c-2.29,0-4.37.57-6.25,1.71-1.88,1.14-3.4,2.77-4.54,4.88v28.96h-11.74Z"/>
    <path class="cls-2" d="m454.77,149.75c-1.83,0-3.4-.66-4.71-1.97-1.31-1.31-1.97-2.88-1.97-4.71s.66-3.47,1.97-4.75c1.31-1.29,2.88-1.93,4.71-1.93s3.47.64,4.75,1.93,1.93,2.87,1.93,4.75-.64,3.4-1.93,4.71c-1.29,1.32-2.87,1.97-4.75,1.97Zm-5.83,49.95v-44.64h11.74v44.64h-11.74Z"/>
    <path class="cls-2" d="m469.85,199.7v-44.64h11.74v3.68c3.37-3.03,7.54-4.54,12.51-4.54,3.48,0,6.55.76,9.21,2.27,2.66,1.51,4.73,3.6,6.21,6.25,1.48,2.66,2.23,5.75,2.23,9.3v27.67h-11.74v-25.96c0-2.91-.83-5.21-2.48-6.9-1.66-1.68-3.91-2.53-6.77-2.53-2,0-3.77.39-5.31,1.16-1.54.77-2.83,1.87-3.86,3.3v30.93h-11.74Z"/>
    <path class="cls-2" d="m542.42,200.56c-4.46,0-8.48-1.03-12.08-3.08-3.6-2.06-6.46-4.83-8.57-8.31-2.11-3.48-3.17-7.4-3.17-11.74s1.04-8.27,3.13-11.78c2.08-3.51,4.94-6.3,8.57-8.35,3.63-2.06,7.67-3.08,12.12-3.08s8.5,1.03,12.12,3.08c3.63,2.06,6.48,4.84,8.57,8.35,2.08,3.51,3.13,7.44,3.13,11.78s-1.04,8.25-3.13,11.74c-2.09,3.48-4.93,6.25-8.53,8.31-3.6,2.06-7.65,3.08-12.17,3.08Zm0-10.2c2.34,0,4.44-.57,6.3-1.71,1.86-1.14,3.34-2.7,4.46-4.67,1.11-1.97,1.67-4.16,1.67-6.55s-.56-4.65-1.67-6.6c-1.11-1.94-2.6-3.5-4.46-4.67-1.86-1.17-3.96-1.76-6.3-1.76s-4.37.59-6.25,1.76c-1.88,1.17-3.37,2.73-4.46,4.67-1.09,1.94-1.63,4.14-1.63,6.6s.54,4.58,1.63,6.55c1.08,1.97,2.57,3.53,4.46,4.67,1.88,1.14,3.97,1.71,6.25,1.71Z"/>
  </g>
  <g>
    <path class="cls-1" d="m68.69,84.76c-1.02-2.28-2.52-4.29-4.37-5.9-1.46-1.3-3.15-2.33-5-3.08-6.13-2.45-14.72-4.2-21.86-5.25-6.25-.9-10.66-1.88-13.24-2.94-2.56-1.07-3.85-3.11-3.85-6.14,0-5.94,4.92-9.33,14.74-8.92,9.71.41,17.13,3.44,23.64,8.52,1.12,1.03,2.57,1.68,3.69,0l7.52-9.85c1.12-1.47,1.01-2.7-.34-3.71-8.6-7.97-19.94-11.95-34-11.95-9.73,0-17.87,2.31-24.47,6.89-6.59,4.6-9.88,11.28-9.88,20.02,0,3.93.67,7.4,2.01,10.43,0,.02.02.04.03.08,1.02,2.28,2.52,4.28,4.36,5.9,1.47,1.3,3.16,2.33,5,3.07,6.13,2.45,14.72,4.21,21.87,5.26,6.25.89,10.65,1.87,13.24,2.94,2.56,1.07,3.85,3.11,3.85,6.15,0,5.94-4.92,9.33-14.74,8.91-9.71-.41-17.13-3.44-23.64-8.51-1.12-1.03-2.58-1.68-3.69,0l-7.52,9.84c-1.12,1.48-1.01,2.7.34,3.71,8.6,7.97,19.94,11.95,34,11.95,9.73,0,17.87-2.31,24.47-6.9,6.59-4.59,9.88-11.28,9.88-20.02,0-3.93-.67-7.4-2.01-10.44,0-.02-.02-.04-.03-.07Z"/>
    <path class="cls-1" d="m493.19,84.76c-1.02-2.28-2.52-4.29-4.37-5.9-1.46-1.3-3.15-2.33-5-3.08-6.13-2.45-14.72-4.2-21.86-5.25-6.25-.9-10.66-1.88-13.24-2.94-2.56-1.07-3.85-3.11-3.85-6.14,0-5.94,4.92-9.33,14.74-8.92,9.71.41,17.13,3.44,23.64,8.52,1.12,1.03,2.57,1.68,3.69,0l7.52-9.85c1.12-1.47,1.01-2.7-.34-3.71-8.6-7.97-19.94-11.95-34-11.95-9.73,0-17.87,2.31-24.47,6.89-6.59,4.6-9.88,11.28-9.88,20.02,0,3.93.67,7.4,2.01,10.43,0,.02.02.04.03.08,1.02,2.28,2.52,4.28,4.36,5.9,1.47,1.3,3.16,2.33,5,3.07,6.13,2.45,14.72,4.21,21.87,5.26,6.25.89,10.65,1.87,13.24,2.94,2.56,1.07,3.85,3.11,3.85,6.15,0,5.94-4.92,9.33-14.74,8.91-9.71-.41-17.13-3.44-23.64-8.51-1.12-1.03-2.58-1.68-3.69,0l-7.52,9.84c-1.12,1.48-1.01,2.7.34,3.71,8.6,7.97,19.94,11.95,34,11.95,9.73,0,17.87-2.31,24.47-6.9,6.59-4.59,9.88-11.28,9.88-20.02,0-3.93-.67-7.4-2.01-10.44,0-.02-.02-.04-.03-.07Z"/>
    <path class="cls-1" d="m190.16.77h-13.12c-1.53,0-2.29.74-2.29,2.23v117.06c0,1.49.76,2.23,2.29,2.23h13.12c1.53,0,2.3-.74,2.3-2.23V3c0-1.49-.77-2.23-2.3-2.23Z"/>
    <path class="cls-1" d="m319.25.77h-13.12c-1.53,0-2.3.75-2.3,2.23v40.93c-7.33-5.45-15.9-8.18-25.69-8.18-12.19,0-22.45,4.22-30.76,12.65-8.32,8.44-12.48,18.62-12.48,30.54s4.16,22.41,12.48,30.79c8.31,8.38,18.57,12.57,30.76,12.57,9.84,0,18.4-2.69,25.69-8.05,1.83-1.34,3.57-2.85,5.23-4.52,8.32-8.38,12.48-18.64,12.48-30.79V3c0-1.48-.77-2.23-2.3-2.23Zm-23.59,97.06c-4.62,4.95-10.45,7.42-17.51,7.42s-12.87-2.48-17.43-7.42c-4.56-4.95-6.84-11.25-6.84-18.89s2.28-13.8,6.84-18.81c4.56-5.01,10.36-7.51,17.43-7.51s12.89,2.53,17.51,7.6c4.61,5.06,6.92,11.3,6.92,18.72s-2.31,13.95-6.92,18.89Z"/>
    <path class="cls-1" d="m220.23,35.85h-13.12c-1.53,0-2.29.74-2.29,2.23v81.99c0,1.49.76,2.23,2.29,2.23h13.12c1.53,0,2.3-.74,2.3-2.23V38.08c0-1.48-.77-2.23-2.3-2.23Z"/>
    <path class="cls-1" d="m405.46,47.02c-8.1-8.44-18.21-12.66-30.33-12.66s-23.01,4.31-31.59,12.91c-8.59,8.61-12.87,19.07-12.87,31.38s4.32,22.63,12.96,30.95c8.64,8.32,19.27,12.48,31.87,12.48,14.52,0,26.82-4.79,36.9-14.37,1.08-1.25,1.08-2.39,0-3.42l-8.82-9.23c-1.08-1.26-2.28-1.26-3.6,0-6.24,6.73-14.22,10.09-23.94,10.09-6.84,0-12.63-2.14-17.38-6.41-4.74-4.28-7.47-9.83-8.19-16.67h64.27c1.68,0,2.52-.8,2.52-2.4.24-13.33-3.69-24.22-11.79-32.66Zm-54.28,23.6c1.44-5.82,4.3-10.49,8.55-14.03,4.26-3.53,9.39-5.3,15.39-5.3,5.64,0,10.53,1.8,14.67,5.39,4.14,3.59,6.75,8.24,7.83,13.94h-46.45Z"/>
    <g>
      <path class="cls-1" d="m122.63,122.09c-12.19,0-22.44-4.19-30.75-12.57-8.32-8.38-12.47-18.64-12.47-30.79s4.16-22.1,12.47-30.54c8.31-8.44,18.56-12.65,30.75-12.65s22.47,4.22,30.84,12.65c8.37,8.44,12.56,18.61,12.56,30.54s-4.16,22.41-12.47,30.79c-8.32,8.38-18.62,12.57-30.92,12.57Zm-17.43-24.46c4.55,4.95,10.36,7.42,17.43,7.42s12.9-2.47,17.51-7.42c4.61-4.95,6.92-11.25,6.92-18.89s-2.31-13.67-6.92-18.73c-4.61-5.06-10.45-7.59-17.51-7.59s-12.87,2.5-17.43,7.51c-4.56,5.01-6.84,11.28-6.84,18.81s2.28,13.95,6.84,18.89Z"/>
      <path class="cls-1" d="m153.03.77h0c7.17,0,13,5.82,13,13v.12c0,7.17-5.82,13-13,13h-13v-13.11c0-7.17,5.82-13,13-13Z"/>
    </g>
    <rect class="cls-1" x="200.68" y=".77" width="25.99" height="26.11" rx="13" ry="13"/>
  </g>
</svg>